<?xml version="1.0" encoding="UTF-8"?>
<!DOCTYPE svg PUBLIC "-//W3C//DTD SVG 1.1//EN" "http://www.w3.org/Graphics/SVG/1.1/DTD/svg11.dtd">
<!-- Creator: CorelDRAW X6 -->
<svg xmlns="http://www.w3.org/2000/svg" xml:space="preserve" width="0.833331in" height="0.833331in" version="1.1" style="shape-rendering:geometricPrecision; text-rendering:geometricPrecision; image-rendering:optimizeQuality; fill-rule:evenodd; clip-rule:evenodd"
viewBox="0 0 833 833"
 xmlns:xlink="http://www.w3.org/1999/xlink">
 <defs>
  <style type="text/css">
   <![CDATA[
    .fil1 {fill:#414042;fill-rule:nonzero}
    .fil0 {fill:white;fill-rule:nonzero}
   ]]>
  </style>
 </defs>
 <g id="Layer_x0020_1">
  <metadata id="CorelCorpID_0Corel-Layer"/>
  <polygon class="fil0" points="0,833 833,833 833,0 0,0 "/>
  <path class="fil1" d="M324 359l-47 147c14,-21 38,-34 63,-34 7,0 14,1 20,3 -13,-22 -33,-64 -36,-117z"/>
  <path class="fil1" d="M264 501l62 -195c0,0 0,-1 0,-1 0,-1 1,-2 1,-3l0 -1 -131 110c-2,2 -3,5 -2,8 1,3 4,5 7,5 36,0 63,32 63,76 0,0 0,1 0,1z"/>
  <path class="fil1" d="M636 411l-131 -110 1 2c0,0 0,0 0,0 0,0 0,0 0,0l63 195c0,-44 27,-75 62,-75 3,0 6,-2 7,-5 1,-3 0,-6 -2,-8z"/>
  <path class="fil1" d="M509 358c-3,53 -22,95 -36,118 6,-2 13,-3 19,-3 26,0 49,13 64,34 0,0 0,0 1,1 0,0 0,0 0,0l-48 -150z"/>
  <path class="fil1" d="M438 382c-4,0 -7,-3 -7,-7 0,-4 3,-7 7,-7 4,0 7,3 7,7 0,4 -3,7 -7,7zm-42 0c-4,0 -7,-3 -7,-7 0,-4 3,-7 7,-7 4,0 7,3 7,7 0,4 -3,7 -7,7zm54 105c1,-1 59,-79 43,-179l0 -1c0,19 -8,37 -21,51l0 -45c0,-3 -2,-6 -5,-7 -3,-1 -6,0 -8,2l-17 21c-13,15 -39,15 -52,0l-17 -21c-2,-2 -5,-3 -8,-2 -3,1 -5,4 -5,7l0 45c-13,-14 -20,-32 -21,-50l-1 2c-15,100 42,175 43,176 1,1 27,38 27,64 0,4 3,7 7,7 4,0 7,-3 7,-7 0,-25 26,-61 26,-62z"/>
 </g>
</svg>
